# xmcd CD database file
#
# Track frame offsets:
#	150
#	21821
#	38953
#	53942
#	69913
#	82958
#	100121
#	118566
#	136282
#	155053
#	172482
#	189865
#	209012
#	224059
#	243336
#	260374
#	276067
#	301532
#	316188
#
# Disc length: 4446 seconds
#
# Revision: 2
# Processed by: cddbd v1.4b41PL1 Copyright (c) Steve Scherf et al.
# Submitted via: Feurio! 1.50.2ß - http://www.feurio.com
#
DISCID=0e115c13
DTITLE=Søs Fenger - Gamle Flammer
DYEAR=1900
DGENRE=
TTITLE0=En gammel flamme
TTITLE1=Hvor end jeg går hen
TTITLE2=Jeg vælger min egen vej
TTITLE3=Sidste time (Radio Edit)
TTITLE4=Vinterdage
TTITLE5=Altid En Engel
TTITLE6=Bliv Min
TTITLE7=Det Er For Sent
TTITLE8=Forbi Nu
TTITLE9=Her Står Jeg Igen
TTITLE10=Husker Den Dag
TTITLE11=Jeg Leger Vi Er Sammen
TTITLE12=Jeg Vælger Min Egen Vej
TTITLE13=Mon De Kan Reparere Dig
TTITLE14=Rosa - Wanna Love Ya'
TTITLE15=Sidste Time
TTITLE16=Stjerner Nok
TTITLE17=Vi Skal Aldrig, Aldrig, Aldrig Ses Igen
TTITLE18=Vil Du Lave Mig Om
EXTD=
EXTT0=
EXTT1=
EXTT2=
EXTT3=
EXTT4=
EXTT5=
EXTT6=
EXTT7=
EXTT8=
EXTT9=
EXTT10=
EXTT11=
EXTT12=
EXTT13=
EXTT14=
EXTT15=
EXTT16=
EXTT17=
EXTT18=
PLAYORDER=
